<svg xmlns="http://www.w3.org/2000/svg" xmlns:xlink="http://www.w3.org/1999/xlink" viewBox="0 0 230.59 230.59"><defs><style>.cls-1,.cls-13,.cls-14,.cls-15,.cls-3{fill:#fefefc;}.cls-1,.cls-10,.cls-12,.cls-13,.cls-14,.cls-15,.cls-6,.cls-7,.cls-8,.cls-9{stroke:#f18652;}.cls-1,.cls-12,.cls-14,.cls-15,.cls-2,.cls-6,.cls-7,.cls-8,.cls-9{stroke-miterlimit:10;}.cls-1,.cls-12{stroke-width:1.56px;}.cls-2,.cls-5{fill:#f18652;}.cls-2{stroke:#fefefc;stroke-width:6px;}.cls-4{fill:#1d1d1b;}.cls-10,.cls-12,.cls-6,.cls-7,.cls-8,.cls-9{fill:none;}.cls-10,.cls-13,.cls-6{stroke-width:3.13px;}.cls-14,.cls-7{stroke-width:1.17px;}.cls-8{stroke-width:1.23px;}.cls-9{stroke-width:2.08px;}.cls-10,.cls-13{stroke-linecap:round;stroke-linejoin:round;}.cls-11{clip-path:url(#clip-path);}.cls-15{stroke-width:0.82px;}</style><clipPath id="clip-path"><path class="cls-1" d="M144,170.34c.31,7.14-8.66,13.32-20,13.8s-20.82-4.91-21.13-12V172a4.72,4.72,0,0,1,7.74-3.71c2.9,2.39,7.61,3.84,12.87,3.62s9.84-2.07,12.52-4.7a4.71,4.71,0,0,1,8,3Z"/></clipPath></defs><title>isotipo-principal</title><g id="Capa_2" data-name="Capa 2"><g id="Capa_1-2" data-name="Capa 1"><circle class="cls-2" cx="115.3" cy="115.3" r="112.3"/><path class="cls-3" d="M195.57,81.48a65.7,65.7,0,0,1-16.6,14,8.29,8.29,0,0,1-.53,4.83,28.15,28.15,0,0,1-11,12.81,27,27,0,0,1-6.74,3,97.86,97.86,0,0,1,2.6,14.34,99.17,99.17,0,0,1,.48,12.34,49.65,49.65,0,0,1,7,15.16,1.3,1.3,0,0,0,0,.13l0,.16a33.24,33.24,0,0,1-11.49,34.07,56.4,56.4,0,0,1-35.52,13c-.64,0-1.29,0-1.93,0s-1.39-.06-2.08-.11a48.28,48.28,0,0,1-35.58-19.95,29.65,29.65,0,0,1-4.4,2.35,47.79,47.79,0,0,1-12.16,3.25,9.59,9.59,0,0,1-1.07.06,8.33,8.33,0,0,1-7.27-12.41,10.34,10.34,0,0,0,1.3-5.72,8.61,8.61,0,0,0-1.22-3.16,23.36,23.36,0,0,1-8.84-6.39,22.93,22.93,0,0,1-4.11-6.9A17.75,17.75,0,0,1,33,147.94c-4.7-8-2-18.63,6.21-24.17.28-.17.55-.34.84-.49l27.72-14.37.1-2.65.69-18.87a10.2,10.2,0,0,1,0-1.11l.23-5.66a81.6,81.6,0,0,1-12,8.19A10.13,10.13,0,0,1,42,77.26c3.2-11.44,10.37-27.69,26.33-40.2a72.76,72.76,0,0,1,12-7.62,38.16,38.16,0,0,1,36.78,1.1c.5.3,1,.61,1.5.94.65.44,1.28.88,1.88,1.33a9.75,9.75,0,0,1,4.09,2.91l1.65,2.17a44.31,44.31,0,0,1,7.48,10.76l10.2,20.78,32.4-16.79a8.44,8.44,0,0,1,2.51-.84,18.15,18.15,0,0,1,16.73,29.68Z"/><path class="cls-4" d="M149.35,107.93c.11.28.21.57.33.87a18.63,18.63,0,0,1-2-.37l-17.94-4.59,1.31-.6Z"/><path class="cls-5" d="M137.22,74.7l3,6L75.92,114.09l.27-7.5L78,58A73.35,73.35,0,0,1,52.68,81.57a1.8,1.8,0,0,1-2.63-2c2.42-8.63,8.45-24.13,23.45-35.89a65.59,65.59,0,0,1,10.61-6.75,29.65,29.65,0,0,1,28.69.81c.41.24.81.49,1.21.76a35.64,35.64,0,0,1,12.23,13.89Q131.73,63.52,137.22,74.7Z"/><path class="cls-5" d="M131,129.58c3.58,0,6.48,3.89,6.48,8.71s-2.9,8.7-6.48,8.7-6.47-3.89-6.47-8.7S127.46,129.58,131,129.58Z"/><path class="cls-5" d="M108.54,133.93c3.59,0,6.48,3.9,6.48,8.71s-2.89,8.71-6.48,8.71-6.47-3.91-6.47-8.71S105,133.93,108.54,133.93Z"/><path class="cls-5" d="M83.68,145.36a74.78,74.78,0,0,1-10.74-4.2c-6.06-2.92-6.74-6.27-10.24-9.2a.13.13,0,0,1-.06-.07.18.18,0,0,1,.09-.24c15.31-8.35,29.4-16.48,44.73-24.82S138.28,90,153.69,81.65a4.51,4.51,0,0,1,4.21,7.76,24,24,0,0,0-2,1.89l-4.54,5.08,1.65.05,17.77.61a20,20,0,0,1-7.7,9,20.22,20.22,0,0,1-13.39,2.71c-.12-.3-.22-.59-.33-.87L131,103.24l-1.31.6-.36-.1-45,20.43c-.66,1.89-4.95,6-4,11.29a22.58,22.58,0,0,0,3.87,9.06A.55.55,0,0,1,83.68,145.36Z"/><path class="cls-4" d="M83.54,153.91c.29,6,1.79,11.33,2.41,17.14a41.06,41.06,0,0,1-2.76-13c-.06-1-.1-1.92-.14-2.88a21.25,21.25,0,0,1-8,6C79.25,159.36,82.33,155.38,83.54,153.91Z"/><path class="cls-5" d="M65.63,162.85a21.19,21.19,0,0,0,17.42-7.71c0,1,.08,1.92.14,2.88a41.06,41.06,0,0,0,2.76,13c.1.89.17,1.8.22,2.73-1.9,1.31-6.46,4.89-9.48,6.14a39.32,39.32,0,0,1-10,2.68A18.67,18.67,0,0,0,69,172.22C68.65,167.52,65.52,164.4,65.63,162.85Z"/><path class="cls-3" d="M62.73,131.65a.18.18,0,0,0-.09.24l-.41.27a20.57,20.57,0,0,0-6.64,7.25,21.16,21.16,0,0,0-2.34,8.37l-4,.33a9.63,9.63,0,0,1-9-4.36c-2.34-4-1-9.88,3.69-13.05q16-8.31,32.05-16.61l64.27-33.34,40-20.7a9.82,9.82,0,0,1,9,16.08A57.3,57.3,0,0,1,153,95.88l0,.55-1.65-.05,4.54-5.08a24,24,0,0,1,2-1.89,4.51,4.51,0,0,0-4.21-7.76q-23.12,12.57-46.23,25.18C92.13,115.17,78,123.3,62.73,131.65Z"/><path class="cls-6" d="M65.63,162.85a15.2,15.2,0,0,1-12.38-15.07,21.16,21.16,0,0,1,2.34-8.37,20.57,20.57,0,0,1,6.64-7.25"/><path class="cls-6" d="M86.06,123.67l43.67-19.83,1.31-.6,18.31,4.69c.11.28.21.57.33.87A89.93,89.93,0,0,1,155,131.37a87.28,87.28,0,0,1,.34,14.06,40.74,40.74,0,0,1,7.37,14.73,1.46,1.46,0,0,0,0,.2,24.89,24.89,0,0,1-8.65,25.52A47.77,47.77,0,0,1,122.22,197c-.59,0-1.19-.05-1.77-.1A40.3,40.3,0,0,1,86,171.05a41.06,41.06,0,0,1-2.76-13c-.06-1-.1-1.92-.14-2.88a21.25,21.25,0,0,1-8,6"/><path class="cls-6" d="M140.19,80.75l40-20.7a9.82,9.82,0,0,1,9,16.08A57.3,57.3,0,0,1,153,95.88"/><path class="cls-6" d="M53.25,147.78l-4,.33a9.63,9.63,0,0,1-9-4.36c-2.34-4-1-9.88,3.69-13.05q16-8.31,32.05-16.61"/><path class="cls-7" d="M75,161.17c4.24-1.81,7.32-5.79,8.53-7.26.29,6,1.79,11.33,2.41,17.14.1.89.17,1.8.22,2.73-1.9,1.31-6.46,4.89-9.48,6.14a39.32,39.32,0,0,1-10,2.68A18.67,18.67,0,0,0,69,172.22c-.34-4.7-3.47-7.82-3.36-9.37"/><path class="cls-6" d="M65.63,162.85A21.24,21.24,0,0,0,75,161.17"/><path class="cls-6" d="M153,96.43l17.77.61a20,20,0,0,1-7.7,9,20.22,20.22,0,0,1-13.39,2.71,18.63,18.63,0,0,1-2-.37l-17.94-4.59-.36-.1-45,20.43c-.66,1.89-4.95,6-4,11.29a22.58,22.58,0,0,0,3.87,9.06.55.55,0,0,1-.61.84,74.78,74.78,0,0,1-10.74-4.2c-6.06-2.92-6.74-6.27-10.24-9.2a.13.13,0,0,1-.06-.07.18.18,0,0,1,.09-.24c15.31-8.35,29.4-16.48,44.73-24.82S138.28,90,153.69,81.65a4.51,4.51,0,0,1,4.21,7.76,24,24,0,0,0-2,1.89l-4.54,5.08Z"/><path class="cls-7" d="M62.11,151.79a10.11,10.11,0,0,1,1.53-4.45A7.68,7.68,0,0,1,68,144.09"/><line class="cls-7" x1="69.64" y1="151.62" x2="63.64" y2="147.34"/><path class="cls-8" d="M120.46,133.42a19.12,19.12,0,0,1,1.59,7.77,19.54,19.54,0,0,1-.25,3.19c-1.14,7.16-6,12.54-11.91,12.54-6.72,0-12.17-7-12.17-15.73s5.45-15.74,12.17-15.74C114.42,125.45,118.38,128.66,120.46,133.42Z"/><path class="cls-8" d="M120.46,133.42c1.14-7.16,6-12.54,11.92-12.54,6.72,0,12.16,7,12.16,15.73s-5.44,15.74-12.16,15.74c-4.54,0-8.49-3.21-10.58-8"/><line class="cls-9" x1="125.03" y1="155.94" x2="129.82" y2="156.06"/><path class="cls-8" d="M115,142.64c0,4.8-2.89,8.71-6.48,8.71s-6.47-3.91-6.47-8.71,2.9-8.71,6.47-8.71S115,137.83,115,142.64Z"/><path class="cls-8" d="M137.51,138.29c0,4.81-2.9,8.7-6.48,8.7s-6.47-3.89-6.47-8.7,2.9-8.71,6.47-8.71S137.51,133.47,137.51,138.29Z"/><path class="cls-9" d="M93.25,131.92s1.56-13.39,19.65-13.17"/><path class="cls-9" d="M118.46,120.52s6.46-11.84,23.15-4.87"/><path class="cls-10" d="M78,58A73.35,73.35,0,0,1,52.68,81.57a1.8,1.8,0,0,1-2.63-2c2.42-8.63,8.45-24.13,23.45-35.89a65.59,65.59,0,0,1,10.61-6.75,29.65,29.65,0,0,1,28.69.81c.41.24.81.49,1.21.76a35.64,35.64,0,0,1,12.23,13.89q5.49,11.17,11,22.36l3,6L75.92,114.09l.27-7.5L78,58"/><path class="cls-3" d="M144,170.34c.31,7.14-8.66,13.32-20,13.8s-20.82-4.91-21.13-12V172a4.72,4.72,0,0,1,7.74-3.71c2.9,2.39,7.61,3.84,12.87,3.62s9.84-2.07,12.52-4.7a4.71,4.71,0,0,1,8,3Z"/><g class="cls-11"><ellipse class="cls-5" cx="115.75" cy="180.04" rx="5.39" ry="9.86" transform="translate(-84.11 256.64) rotate(-78.23)"/></g><path class="cls-12" d="M144,170.34c.31,7.14-8.66,13.32-20,13.8s-20.82-4.91-21.13-12V172a4.72,4.72,0,0,1,7.74-3.71c2.9,2.39,7.61,3.84,12.87,3.62s9.84-2.07,12.52-4.7a4.71,4.71,0,0,1,8,3Z"/><polygon class="cls-13" points="137.22 74.7 76.18 106.58 75.91 114.08 140.19 80.75 137.22 74.7"/><path class="cls-14" d="M77.44,71.88l2.78.12A2.05,2.05,0,0,0,82,71.18l4.28-5.65a.38.38,0,0,1,.68.13l1.88,6.83a2.07,2.07,0,0,0,1.32,1.41l6.7,2.33a.38.38,0,0,1,.09.68L91,80.82a2.06,2.06,0,0,0-.93,1.69l-.14,7.09a.39.39,0,0,1-.63.29l-5.54-4.42a2.09,2.09,0,0,0-1.9-.37l-5,1.53L77.1,80Z"/><path class="cls-15" d="M124.14,49l-1.57,1.17a1.44,1.44,0,0,0-.58,1.21l.19,5a.27.27,0,0,1-.43.23l-4-2.86a1.44,1.44,0,0,0-1.33-.18l-4.65,1.71a.27.27,0,0,1-.35-.33l1.47-4.73a1.47,1.47,0,0,0-.24-1.33l-3.06-3.89a.27.27,0,0,1,.2-.44l5-.06a1.41,1.41,0,0,0,1.18-.64l2-3,2.78,3.69Z"/></g></g></svg>